# xmcd
#
# Track frame offsets:
# 150
# 13593
# 28025
# 43439
# 56946
# 68282
# 80669
# 93571
# 108465
# 125260
# 143518
# 160158
# 175356
# 189745
# 202772
# 215858
# 231687
#
# Disc length: 3133 seconds
#
#
# Revision: 0
# Processed by: cddbd v1.5.1PL2 Copyright (c) Steve Scherf et al.
# Submitted via: FreeRIP 2.90 
#
DISCID=f90c3b11
DTITLE=Tião Carreiro - Saudades de ... - Saudades De Tião Carreiro
DYEAR=1996
DGENRE=Sertanejo
TTITLE0=Rei do Gado
TTITLE1=Amargurado
TTITLE2=A Vaca Já Foi Pro Brejo
TTITLE3=Pagode em Brasilia
TTITLE4=Empreitada Perigosa
TTITLE5=Rancho dos Ipês
TTITLE6=Pretinho Aleijado
TTITLE7=Boi Soberano
TTITLE8=A Mão do Tempo
TTITLE9=A Coisa Tá Feia
TTITLE10=Rancho do Vale
TTITLE11=Pai João
TTITLE12=Oi Paixão
TTITLE13=Raízes do Amor
TTITLE14=Rei Sem Coroa
TTITLE15=Rio de Lágrimas
TTITLE16=Homenagem a Tião Carreiro
EXTD=YEAR: 1996
EXTT0=
EXTT1=
EXTT2=
EXTT3=
EXTT4=
EXTT5=
EXTT6=
EXTT7=
EXTT8=
EXTT9=
EXTT10=
EXTT11=
EXTT12=
EXTT13=
EXTT14=
EXTT15=
EXTT16=
PLAYORDER=
